<svg width="70" height="70" viewBox="0 0 70 70" fill="none" xmlns="http://www.w3.org/2000/svg">
<path d="M65.1821 39.2427C69.3723 31.2605 60.8552 25.725 49.7198 23.0103C50.5576 21.1061 50.8004 18.6134 48.4379 16.2334C45.4082 13.1873 47.4218 8.75 47.4218 8.75C47.4218 8.75 41.0627 14.6158 45.0779 18.6605C46.5588 20.1513 47.3299 21.4605 47.6985 22.5553C44.6245 21.9217 41.5117 21.4927 38.3809 21.2712C39.316 18.7294 39.4068 15.5367 36.4602 12.4797C32.4265 8.28953 35.1127 2.1875 35.1127 2.1875C35.1127 2.1875 26.6329 10.2528 31.9868 15.8134C33.9413 17.8413 34.9706 19.6263 35.4693 21.1225C32.1509 21.023 28.9571 21.1684 26.1199 21.5655C26.4579 19.9303 26.1757 18.0502 24.3721 16.2345C21.3424 13.1884 23.3571 8.75 23.3571 8.75C23.3571 8.75 16.997 14.6158 21.0132 18.6605C22.271 19.927 23.0082 21.058 23.4315 22.0434C22.9524 22.1484 22.4876 22.2622 22.0402 22.3858C8.21306 21.0919 2.18212 23.9487 4.93728 29.5531C0.129155 34.3613 1.93603 39.8486 7.95275 44.0475C11.0918 56.9767 11.9001 67.8125 35.5426 67.8125C56.6388 67.8125 59.5537 59.1828 62.1667 48.1381C70.0067 46.5773 68.3365 42.8192 65.1821 39.2427ZM63.2276 37.9509C60.6015 43.5509 49.2046 47.7663 35.5426 47.7663C21.8817 47.7663 10.4848 43.5509 7.85759 37.9509C7.80181 37.7847 7.74822 37.6119 7.69462 37.4434C8.94587 34.2694 13.0124 31.5153 18.724 29.6712C17.382 30.9684 17.1031 32.9055 20.6348 33.5847C21.6454 33.7794 24.4202 33.1056 23.2073 29.6625C23.0377 29.1813 22.761 28.8586 22.4209 28.6639C26.3452 27.7659 30.8001 27.2486 35.5426 27.2486C36.0742 27.2486 36.5959 27.2672 37.1198 27.2792C34.3832 28.2505 32.1509 31.243 37.7388 32.1256C38.9726 32.3203 42.3599 31.6466 40.879 28.2034C40.7496 27.8966 40.5422 27.6288 40.2774 27.4269C45.5132 27.8119 50.2568 28.8203 54.0915 30.2739C50.7195 30.0858 46.9788 32.1639 52.9693 35.0897C54.2545 35.7175 58.1592 36.2939 57.6221 32.492C57.5833 32.2174 57.4863 31.9541 57.3377 31.7198C60.4035 33.3353 62.5418 35.2942 63.3895 37.4434L63.2276 37.9509Z" fill="white"/>
<path d="M28.2592 40.2949C31.7953 40.2949 34.1534 37.0978 36.0007 35.8466C38.582 34.0966 45.0723 33.4141 39.3564 33.2763C33.9346 33.1461 27.2409 37.5474 22.7675 37.2444C15.3606 36.7413 22.9468 40.2949 28.2592 40.2949Z" fill="white"/>
<path d="M35.9002 46.8268C37.1493 47.0674 40.5826 46.234 39.0808 41.976C37.3844 37.1581 27.1152 45.1359 35.9002 46.8268Z" fill="white"/>
<path d="M16.4576 36.2884C15.2643 34.604 13.534 32.4679 12.8176 33.5802C11.8387 35.1016 11.5303 38.163 12.2412 38.2987C17.8149 39.3673 17.4245 37.6523 16.4576 36.2884Z" fill="white"/>
<path d="M48.86 36.971C49.8651 35.7263 47.8581 32.7306 46.5696 33.2545C44.5528 34.0748 43.3901 33.5192 42.5042 34.7638C40.4293 37.6787 47.4939 38.6609 48.86 36.971Z" fill="white"/>
<path d="M48.2321 40.5377C46.7862 39.9001 47.1274 42.0362 44.9913 40.3223C43.4623 39.0951 40.1723 42.1904 42.3423 44.2926C44.7573 46.6321 45.4004 44.4085 46.4154 44.5956C48.4782 44.9751 52.0252 42.2112 48.2321 40.5377Z" fill="white"/>
<path d="M24.1893 41.2683C23.4357 40.5267 22.4251 41.4214 21.8541 42.5129C21.2887 42.2351 20.8282 42.1706 20.8282 42.1706C20.3962 40.939 19.111 40.0947 19.111 40.0947C19.111 40.0947 19.228 41.3754 19.3976 42C17.9779 41.4958 17.9341 38.9583 17.9341 38.9583C17.9341 38.9583 16.9815 39.5281 17.0679 40.4961C15.5049 39.235 14.1738 39.8245 14.1738 39.8245C14.1738 39.8245 16.1568 40.9401 16.4302 41.6926C15.3168 41.779 14.6671 42.164 14.2887 43.0598C14.2898 43.0675 16.4893 42.0131 18.1168 42.7743C17.4748 43.2993 17.7941 44.6107 17.7941 44.6107C19.309 43.0051 20.5187 43.1768 21.4866 43.4645C21.3696 43.9556 21.3773 44.404 21.5851 44.6764C23.264 46.8836 29.1123 46.387 30.6829 44.7551C32.5849 42.7809 27.2999 44.3297 24.1893 41.2683Z" fill="white"/>
<path d="M28.3207 32.9547C27.823 33.9544 27.8197 34.709 28.395 35.4944C28.4027 35.4965 28.6269 33.0684 30.1155 32.0622C30.2369 32.8825 31.5254 33.2806 31.5254 33.2806C30.495 29.6319 33.5029 29.4415 33.4886 28.1323C31.894 28.2669 30.9883 29.4262 30.9883 29.4262C29.7097 29.1648 28.324 29.8331 28.324 29.8331C28.324 29.8331 29.4844 30.3898 30.1068 30.5659C28.9452 31.5251 26.7446 30.2597 26.7446 30.2597C26.7446 30.2597 26.7446 31.3709 27.6196 31.792C25.735 32.4865 25.5579 33.9303 25.5579 33.9303C25.5579 33.9303 27.5332 32.8026 28.3207 32.9547Z" fill="white"/>
<path d="M56.2666 37.9379C56.7194 37.0782 56.0588 36.1846 56.0588 36.1846C56.0588 36.1846 55.0427 38.511 53.5388 38.4311C53.9347 37.9193 54.5363 36.7818 54.5363 36.7818C54.5363 36.7818 53.0247 37.0694 52.1519 38.0396C52.1519 38.0396 50.7344 37.6469 49.3738 38.4869C50.1416 39.5479 52.6725 37.9105 54.0146 41.4564C54.0146 41.4564 54.813 40.3704 54.4225 39.6386C56.2185 39.561 57.8438 41.3788 57.8492 41.3722C57.8427 40.3988 57.3921 39.795 56.3957 39.2875C56.9382 38.698 59.1978 38.43 59.1978 38.43C59.1978 38.43 58.196 37.3746 56.2666 37.9379Z" fill="white"/>
</svg>
