<svg width="70" height="70" viewBox="0 0 80 80" fill="none" xmlns="http://www.w3.org/2000/svg">
<path d="M32.0835 5.83337C37.7493 5.83374 43.2215 7.89511 47.4794 11.633C51.7373 15.3708 54.4901 20.5299 55.2243 26.148L61.7868 36.47C62.2185 37.1496 62.131 38.1617 61.1306 38.5934L55.4168 41.0375V49.5834C55.4168 51.1305 54.8022 52.6142 53.7083 53.7082C52.6143 54.8021 51.1306 55.4167 49.5835 55.4167H43.7531L43.7502 64.1667H17.5002V53.3925C17.5002 49.9509 16.2285 46.693 13.8718 43.753C11.1236 40.3216 9.40072 36.1836 8.90161 31.8158C8.4025 27.4479 9.14749 23.0279 11.0508 19.065C12.954 15.1021 15.9381 11.7575 19.6593 9.41654C23.3804 7.07557 27.6872 5.83348 32.0835 5.83337ZM32.0835 11.6667C28.7864 11.6666 25.5564 12.5978 22.7655 14.3532C19.9746 16.1086 17.7364 18.6168 16.3086 21.5887C14.8809 24.5606 14.3218 27.8753 14.6956 31.1511C15.0695 34.4269 16.3612 37.5304 18.4218 40.1042C21.6127 44.0825 23.3335 48.6121 23.3335 53.3925V58.3334H37.9168L37.9227 49.5834H49.5835V37.1934L54.1043 35.2567L49.6039 28.1838L49.4377 26.8946C48.8855 22.6827 46.8204 18.8153 43.6274 16.0135C40.4344 13.2117 36.3315 11.6668 32.0835 11.6667ZM30.5377 22.6421L32.0835 24.188L33.6293 22.6421C34.1001 22.1545 34.6632 21.7656 35.2859 21.4979C35.9086 21.2303 36.5783 21.0894 37.256 21.0833C37.9338 21.0773 38.6059 21.2063 39.2332 21.4628C39.8606 21.7194 40.4305 22.0982 40.9099 22.5774C41.3892 23.0565 41.7683 23.6264 42.0251 24.2536C42.2819 24.8808 42.4111 25.5529 42.4054 26.2306C42.3996 26.9084 42.259 27.5782 41.9916 28.2009C41.7242 28.8237 41.3355 29.387 40.8481 29.858L32.0835 38.6255L23.3189 29.858C22.8315 29.387 22.4428 28.8237 22.1754 28.2009C21.908 27.5782 21.7674 26.9084 21.7616 26.2306C21.7559 25.5529 21.8851 24.8808 22.1419 24.2536C22.3987 23.6264 22.7778 23.0565 23.2571 22.5774C23.7365 22.0982 24.3064 21.7194 24.9338 21.4628C25.5611 21.2063 26.2332 21.0773 26.911 21.0833C27.5887 21.0894 28.2584 21.2303 28.8811 21.4979C29.5038 21.7656 30.0669 22.1545 30.5377 22.6421Z" fill="white"/>
</svg>
