<svg width="70" height="70" viewBox="0 0 80 80" fill="none" xmlns="http://www.w3.org/2000/svg">
<path d="M45.9375 30.625C45.9375 30.0448 45.707 29.4884 45.2968 29.0782C44.8866 28.668 44.3302 28.4375 43.75 28.4375C43.1698 28.4375 42.6134 28.668 42.2032 29.0782C41.793 29.4884 41.5625 30.0448 41.5625 30.625V37.1875C41.5625 37.7677 41.793 38.3241 42.2032 38.7343C42.6134 39.1445 43.1698 39.375 43.75 39.375C44.3302 39.375 44.8866 39.1445 45.2968 38.7343C45.707 38.3241 45.9375 37.7677 45.9375 37.1875V30.625Z" fill="white"/>
<path d="M35 28.4375C35.5802 28.4375 36.1366 28.668 36.5468 29.0782C36.957 29.4884 37.1875 30.0448 37.1875 30.625V37.1875C37.1875 37.7677 36.957 38.3241 36.5468 38.7343C36.1366 39.1445 35.5802 39.375 35 39.375C34.4198 39.375 33.8634 39.1445 33.4532 38.7343C33.043 38.3241 32.8125 37.7677 32.8125 37.1875V30.625C32.8125 30.0448 33.043 29.4884 33.4532 29.0782C33.8634 28.668 34.4198 28.4375 35 28.4375Z" fill="white"/>
<path d="M28.4375 30.625C28.4375 30.0448 28.207 29.4884 27.7968 29.0782C27.3866 28.668 26.8302 28.4375 26.25 28.4375C25.6698 28.4375 25.1134 28.668 24.7032 29.0782C24.293 29.4884 24.0625 30.0448 24.0625 30.625V37.1875C24.0625 37.7677 24.293 38.3241 24.7032 38.7343C25.1134 39.1445 25.6698 39.375 26.25 39.375C26.8302 39.375 27.3866 39.1445 27.7968 38.7343C28.207 38.3241 28.4375 37.7677 28.4375 37.1875V30.625Z" fill="white"/>
<path d="M17.5 43.75C18.0802 43.75 18.6366 43.9805 19.0468 44.3907C19.457 44.8009 19.6875 45.3573 19.6875 45.9375V52.5C19.6875 53.0802 19.457 53.6366 19.0468 54.0468C18.6366 54.457 18.0802 54.6875 17.5 54.6875C16.9198 54.6875 16.3634 54.457 15.9532 54.0468C15.543 53.6366 15.3125 53.0802 15.3125 52.5V45.9375C15.3125 45.3573 15.543 44.8009 15.9532 44.3907C16.3634 43.9805 16.9198 43.75 17.5 43.75Z" fill="white"/>
<path d="M54.6875 45.9375C54.6875 45.3573 54.457 44.8009 54.0468 44.3907C53.6366 43.9805 53.0802 43.75 52.5 43.75C51.9198 43.75 51.3634 43.9805 50.9532 44.3907C50.543 44.8009 50.3125 45.3573 50.3125 45.9375V52.5C50.3125 53.0802 50.543 53.6366 50.9532 54.0468C51.3634 54.457 51.9198 54.6875 52.5 54.6875C53.0802 54.6875 53.6366 54.457 54.0468 54.0468C54.457 53.6366 54.6875 53.0802 54.6875 52.5V45.9375Z" fill="white"/>
<path d="M35 4.375H45.2091C46.0141 4.375 46.6681 5.02688 46.6681 5.83406V11.6659C46.6681 12.0529 46.5144 12.424 46.2408 12.6977C45.9671 12.9713 45.596 13.125 45.2091 13.125H37.1875V15.4328C47.0312 16.52 54.6875 24.8653 54.6875 35H59.0625C60.803 35 62.4722 35.6914 63.7029 36.9221C64.9336 38.1528 65.625 39.822 65.625 41.5625V61.25C65.625 61.8302 65.3945 62.3866 64.9843 62.7968C64.5741 63.207 64.0177 63.4375 63.4375 63.4375H6.5625C5.98234 63.4375 5.42594 63.207 5.0157 62.7968C4.60547 62.3866 4.375 61.8302 4.375 61.25V41.5625C4.375 39.822 5.0664 38.1528 6.29711 36.9221C7.52782 35.6914 9.19702 35 10.9375 35H15.3125C15.3125 24.8653 22.9688 16.52 32.8125 15.4328V6.5625C32.8125 5.98234 33.043 5.42594 33.4532 5.0157C33.8634 4.60547 34.4198 4.375 35 4.375ZM35 19.6875C30.9389 19.6875 27.0441 21.3008 24.1724 24.1724C21.3008 27.0441 19.6875 30.9389 19.6875 35V37.1875C19.6875 37.7677 19.457 38.3241 19.0468 38.7343C18.6366 39.1445 18.0802 39.375 17.5 39.375H10.9375C10.3573 39.375 9.80094 39.6055 9.3907 40.0157C8.98047 40.4259 8.75 40.9823 8.75 41.5625V59.0625H27.3438V52.5C27.3438 51.9198 27.5742 51.3634 27.9845 50.9532C28.3947 50.543 28.9511 50.3125 29.5312 50.3125H40.4688C41.0489 50.3125 41.6053 50.543 42.0155 50.9532C42.4258 51.3634 42.6562 51.9198 42.6562 52.5V59.0625H61.25V41.5625C61.25 40.9823 61.0195 40.4259 60.6093 40.0157C60.1991 39.6055 59.6427 39.375 59.0625 39.375H52.5C51.9198 39.375 51.3634 39.1445 50.9532 38.7343C50.543 38.3241 50.3125 37.7677 50.3125 37.1875V35C50.3125 30.9389 48.6992 27.0441 45.8276 24.1724C42.9559 21.3008 39.0611 19.6875 35 19.6875ZM38.2812 54.6875H31.7188V59.0625H38.2812V54.6875Z" fill="white"/>
</svg>
