<svg width="70" height="70" viewBox="0 0 80 80" fill="none" xmlns="http://www.w3.org/2000/svg">
<path d="M35.0004 17.0188L34.3158 17.2266L6.972 26.3879L0.755127 28.4375L4.37544 29.5969V48.7375C3.0695 49.4966 2.18794 50.8813 2.18794 52.5C2.18794 53.6604 2.64888 54.7732 3.46935 55.5936C4.28982 56.4141 5.40262 56.875 6.56294 56.875C7.72326 56.875 8.83606 56.4141 9.65653 55.5936C10.477 54.7732 10.9379 53.6604 10.9379 52.5C10.9379 50.8813 10.0564 49.4966 8.75044 48.7375V31.1063L13.1254 32.5391V43.75C13.1254 45.5438 14.2192 47.0313 15.5186 48.0594C16.8179 49.081 18.4323 49.8029 20.3704 50.4504C24.2511 51.741 29.3654 52.5 35.0004 52.5C40.6354 52.5 45.7498 51.7432 49.6304 50.4482C51.5686 49.8029 53.1829 49.081 54.4823 48.0572C55.7817 47.0313 56.8754 45.5438 56.8754 43.75V32.5391L63.0289 30.4872L69.2458 28.4375L63.0267 26.3857L35.6829 17.2266L35.0004 17.0188ZM35.0004 21.6016L55.5083 28.4375L35.0004 35.2735L14.4926 28.4375L35.0004 21.6016ZM17.5004 34.0441L34.3179 39.6485L35.0004 39.8541L35.6851 39.6463L52.5004 34.0419V43.75C52.5004 43.7719 52.5092 44.0257 51.8158 44.5704C51.1245 45.1172 49.8842 45.8063 48.2611 46.3488C45.0192 47.4272 40.2395 48.125 35.0004 48.125C29.7614 48.125 24.9817 47.4294 21.7376 46.3466C20.1189 45.8063 18.8764 45.115 18.1851 44.5704C17.4895 44.0235 17.5004 43.7719 17.5004 43.75V34.0419V34.0441Z" fill="white"/>
</svg>
